# xmcd
#
# Track frame offsets:
#	150
#	7050
#	30835
#	40712
#	54717
#	61072
#
# Disc length: 1079 seconds
#
# Revision: 1
# Processed by: cddbd v1.5.1PL0 Copyright (c) Steve Scherf et al.
# Submitted via: CDex 1.50Beta5
#
DISCID=3f043506
DTITLE=山本百合子 - みつめていいよ 夏休み特刊号 ショウ子ディスク
DYEAR=1900
DGENRE=Anime
TTITLE0=夏だよ!FIGHT!
TTITLE1=みんながHERO
TTITLE2=DEAR MIKI FROM SHOWKO
TTITLE3=BAMBOO RENDEZVOUS
TTITLE4=3-1=☆(1人減ってもうるさいよ)
TTITLE5=THANKS GIRL FRIEND
EXTD=
EXTT0=
EXTT1=
EXTT2=
EXTT3=
EXTT4=
EXTT5=
PLAYORDER=
